  0
SECTION
  2
HEADER
  9
$ACADVER
  1
AC1009
  9
$INSBASE
 10
0.0
 20
0.0
 30
0.0
  9
$EXTMIN
 10
92.252642283488953
 20
-598.22335518098043
 30
-0.0015258207003583
  9
$EXTMAX
 10
203.29191589666701
 20
1668.8546667538419
 30
0.0000000349246037
  9
$LIMMIN
 10
0.0
 20
0.0
  9
$LIMMAX
 10
420.0
 20
297.0
  9
$ORTHOMODE
 70
     1
  9
$REGENMODE
 70
     1
  9
$FILLMODE
 70
     1
  9
$QTEXTMODE
 70
     0
  9
$MIRRTEXT
 70
     1
  9
$DRAGMODE
 70
     2
  9
$LTSCALE
 40
25.399999999999999
  9
$OSMODE
 70
   167
  9
$ATTMODE
 70
     1
  9
$TEXTSIZE
 40
0.2
  9
$TRACEWID
 40
0.05
  9
$TEXTSTYLE
  7
STANDARD
  9
$CLAYER
  8
0
  9
$CELTYPE
  6
CONTINUOUS
  9
$CECOLOR
 62
   256
  9
$DIMSCALE
 40
1.0
  9
$DIMASZ
 40
0.18
  9
$DIMEXO
 40
0.0625
  9
$DIMDLI
 40
0.38
  9
$DIMRND
 40
0.0
  9
$DIMDLE
 40
0.0
  9
$DIMEXE
 40
0.18
  9
$DIMTP
 40
0.0
  9
$DIMTM
 40
0.0
  9
$DIMTXT
 40
0.18
  9
$DIMCEN
 40
0.09
  9
$DIMTSZ
 40
0.0
  9
$DIMTOL
 70
     0
  9
$DIMLIM
 70
     0
  9
$DIMTIH
 70
     1
  9
$DIMTOH
 70
     1
  9
$DIMSE1
 70
     0
  9
$DIMSE2
 70
     0
  9
$DIMTAD
 70
     0
  9
$DIMZIN
 70
     0
  9
$DIMBLK
  1

  9
$DIMASO
 70
     1
  9
$DIMSHO
 70
     1
  9
$DIMPOST
  1

  9
$DIMAPOST
  1

  9
$DIMALT
 70
     0
  9
$DIMALTD
 70
     2
  9
$DIMALTF
 40
25.399999999999999
  9
$DIMLFAC
 40
1.0
  9
$DIMTOFL
 70
     0
  9
$DIMTVP
 40
0.0
  9
$DIMTIX
 70
     0
  9
$DIMSOXD
 70
     0
  9
$DIMSAH
 70
     0
  9
$DIMBLK1
  1

  9
$DIMBLK2
  1

  9
$DIMSTYLE
  2
STANDARD
  9
$DIMCLRD
 70
     0
  9
$DIMCLRE
 70
     0
  9
$DIMCLRT
 70
     0
  9
$DIMTFAC
 40
1.0
  9
$DIMGAP
 40
0.09
  9
$LUNITS
 70
     2
  9
$LUPREC
 70
     4
  9
$SKETCHINC
 40
0.1
  9
$FILLETRAD
 40
0.0
  9
$AUNITS
 70
     0
  9
$AUPREC
 70
     0
  9
$MENU
  1
acad
  9
$ELEVATION
 40
0.0
  9
$PELEVATION
 40
0.0
  9
$THICKNESS
 40
0.0
  9
$LIMCHECK
 70
     0
  9
$BLIPMODE
 70
     0
  9
$CHAMFERA
 40
0.0
  9
$CHAMFERB
 40
0.0
  9
$SKPOLY
 70
     0
  9
$TDCREATE
 40
2453794.3778097811
  9
$TDUPDATE
 40
2455357.3966975929
  9
$TDINDWG
 40
0.0456419676
  9
$TDUSRTIMER
 40
0.0456403241
  9
$USRTIMER
 70
     1
  9
$ANGBASE
 50
0.0
  9
$ANGDIR
 70
     0
  9
$PDMODE
 70
     0
  9
$PDSIZE
 40
0.0
  9
$PLINEWID
 40
0.0
  9
$COORDS
 70
     1
  9
$SPLFRAME
 70
     0
  9
$SPLINETYPE
 70
     6
  9
$SPLINESEGS
 70
     8
  9
$ATTDIA
 70
     0
  9
$ATTREQ
 70
     1
  9
$HANDLING
 70
     1
  9
$HANDSEED
  5
573
  9
$SURFTAB1
 70
     6
  9
$SURFTAB2
 70
     6
  9
$SURFTYPE
 70
     6
  9
$SURFU
 70
     6
  9
$SURFV
 70
     6
  9
$UCSNAME
  2

  9
$UCSORG
 10
0.0
 20
0.0
 30
0.0
  9
$UCSXDIR
 10
1.0
 20
0.0
 30
0.0
  9
$UCSYDIR
 10
0.0
 20
1.0
 30
0.0
  9
$PUCSNAME
  2

  9
$PUCSORG
 10
0.0
 20
0.0
 30
0.0
  9
$PUCSXDIR
 10
1.0
 20
0.0
 30
0.0
  9
$PUCSYDIR
 10
0.0
 20
1.0
 30
0.0
  9
$USERI1
 70
     0
  9
$USERI2
 70
     0
  9
$USERI3
 70
     0
  9
$USERI4
 70
     0
  9
$USERI5
 70
     0
  9
$USERR1
 40
0.0
  9
$USERR2
 40
0.0
  9
$USERR3
 40
0.0
  9
$USERR4
 40
0.0
  9
$USERR5
 40
0.0
  9
$WORLDVIEW
 70
     1
  9
$SHADEDGE
 70
     3
  9
$SHADEDIF
 70
    70
  9
$TILEMODE
 70
     1
  9
$MAXACTVP
 70
    16
  9
$PLIMCHECK
 70
     0
  9
$PEXTMIN
 10
1.0000000000000000E+020
 20
1.0000000000000000E+020
 30
1.0000000000000000E+020
  9
$PEXTMAX
 10
-1.0000000000000000E+020
 20
-1.0000000000000000E+020
 30
-1.0000000000000000E+020
  9
$PLIMMIN
 10
0.0
 20
0.0
  9
$PLIMMAX
 10
12.0
 20
9.0
  9
$UNITMODE
 70
     0
  9
$VISRETAIN
 70
     0
  9
$PLINEGEN
 70
     1
  9
$PSLTSCALE
 70
     0
  0
ENDSEC
  0
SECTION
  2
TABLES
  0
TABLE
  2
VPORT
 70
     1
  0
VPORT
  2
*ACTIVE
 70
     0
 10
0.0
 20
0.0
 11
1.0
 21
1.0
 12
147.77227909007769
 22
535.31565578643085
 13
0.0
 23
0.0
 14
1.0
 24
1.0
 15
0.0
 25
0.0
 16
0.0
 26
0.0
 36
1.0
 17
0.0
 27
0.0
 37
0.0
 40
2285.046936243421
 41
1.617724867724867
 42
50.0
 43
0.0
 44
0.0
 50
0.0
 51
0.0
 71
     0
 72
   100
 73
     1
 74
     1
 75
     0
 76
     0
 77
     0
 78
     0
  0
ENDTAB
  0
TABLE
  2
LTYPE
 70
     5
  0
LTYPE
  2
CONTINUOUS
 70
     0
  3
Solid line
 72
    65
 73
     0
 40
0.0
  0
LTYPE
  2
HIDDEN2
 70
     0
  3
_ _ _ _ _ _ _ _ _ _ _ _ _ _ _ _ _ _ _ _ _ _ _ _
 72
    65
 73
     2
 40
0.1875
 49
0.125
 49
-0.0625
  0
LTYPE
  2
CENTER2
 70
     0
  3
___ _ ___ _ ___ _ ___ _ ___ _ ___ _ ___ _ ___ _
 72
    65
 73
     4
 40
1.125
 49
0.75
 49
-0.125
 49
0.125
 49
-0.125
  0
LTYPE
  2
PHANTOM2
 70
     0
  3
___ _ _ ___ _ _ ___ _ _ ___ _ _ ___ _ _ ___ _ _
 72
    65
 73
     6
 40
1.25
 49
0.625
 49
-0.125
 49
0.125
 49
-0.125
 49
0.125
 49
-0.125
  0
LTYPE
  2
DOT2
 70
     0
  3
...............................................
 72
    65
 73
     2
 40
0.125
 49
0.0
 49
-0.125
  0
ENDTAB
  0
TABLE
  2
LAYER
 70
     7
  0
LAYER
  2
0
 70
     0
 62
     7
  6
CONTINUOUS
  0
LAYER
  2
2
 70
     0
 62
     7
  6
CONTINUOUS
  0
LAYER
  2
4
 70
     0
 62
     7
  6
CONTINUOUS
  0
LAYER
  2
DEFAULT
 70
     0
 62
     7
  6
CONTINUOUS
  0
LAYER
  2
PREDETERMINADO
 70
     0
 62
     7
  6
CONTINUOUS
  0
LAYER
  2
FORRO_EXT_LARG_D
 70
     0
 62
     7
  6
CONTINUOUS
  0
LAYER
  2
FEXT_LARG_IZQ_14
 70
     0
 62
     7
  6
CONTINUOUS
  0
ENDTAB
  0
TABLE
  2
STYLE
 70
     2
  0
STYLE
  2
STANDARD
 70
     0
 40
0.0
 41
1.0
 50
0.0
 71
     0
 42
0.2
  3
txt
  4

  0
STYLE
  2
ANNOTATIVE
 70
     0
 40
0.0
 41
1.0
 50
0.0
 71
     0
 42
0.2
  3
txt
  4

  0
ENDTAB
  0
TABLE
  2
VIEW
 70
     0
  0
ENDTAB
  0
TABLE
  2
UCS
 70
     0
  0
ENDTAB
  0
TABLE
  2
APPID
 70
     4
  0
APPID
  2
ACAD
 70
     0
  0
APPID
  2
ACADANNOTATIVE
 70
     0
  0
APPID
  2
ACAD_MLEADERVER
 70
     0
  0
APPID
  2
DCO15
 70
     0
  0
ENDTAB
  0
TABLE
  2
DIMSTYLE
 70
     2
  0
DIMSTYLE
  2
STANDARD
 70
     0
  3

  4

  5

  6

  7

 40
1.0
 41
0.18
 42
0.0625
 43
0.38
 44
0.18
 45
0.0
 46
0.0
 47
0.0
 48
0.0
140
0.18
141
0.09
142
0.0
143
25.399999999999999
144
1.0
145
0.0
146
1.0
147
0.09
 71
     0
 72
     0
 73
     1
 74
     1
 75
     0
 76
     0
 77
     0
 78
     0
170
     0
171
     2
172
     0
173
     0
174
     0
175
     0
176
     0
177
     0
178
     0
  0
DIMSTYLE
  2
ANNOTATIVE
 70
     0
  3

  4

  5

  6

  7

 40
1.0
 41
0.18
 42
0.0625
 43
0.38
 44
0.18
 45
0.0
 46
0.0
 47
0.0
 48
0.0
140
0.18
141
0.09
142
0.0
143
25.399999999999999
144
1.0
145
0.0
146
1.0
147
0.09
 71
     0
 72
     0
 73
     1
 74
     1
 75
     0
 76
     0
 77
     0
 78
     0
170
     0
171
     2
172
     0
173
     0
174
     0
175
     0
176
     0
177
     0
178
     0
  0
ENDTAB
  0
ENDSEC
  0
SECTION
  2
BLOCKS
  0
BLOCK
  8
0
  2
$MODEL_SPACE
 70
     0
 10
0.0
 20
0.0
 30
0.0
  3
$MODEL_SPACE
  1

  0
ENDBLK
  5
533
  8
0
  0
BLOCK
 67
     1
  8
0
  2
$PAPER_SPACE
 70
     0
 10
0.0
 20
0.0
 30
0.0
  3
$PAPER_SPACE
  1

  0
ENDBLK
  5
52F
 67
     1
  8
0
  0
BLOCK
  8
DEFAULT
 62
     1
  2
SE0
 70
     0
 10
0.0
 20
0.0
 30
0.0
  3
SE0
  1

  0
ENDBLK
  5
64
  8
DEFAULT
 62
     1
  0
BLOCK
  8
DEFAULT
 62
     1
  2
SE1
 70
     0
 10
0.0
 20
0.0
 30
0.0
  3
SE1
  1

  0
LINE
  5
4E
  8
FORRO_EXT_LARG_D
  6
CONTINUOUS
 62
     7
 10
-1073.6534057933991
 20
171.9494594281999
 30
0.0
 11
-1073.6534057933991
 21
108.9494594282
 31
0.0
  0
LINE
  5
4F
  8
FORRO_EXT_LARG_D
  6
CONTINUOUS
 62
     7
 10
1161.8465942066
 20
203.62945942819991
 30
0.0
 11
-1017.153405793399
 21
203.62945942819991
 31
0.0
  0
CIRCLE
  5
50
  8
FORRO_EXT_LARG_D
  6
CONTINUOUS
 62
     7
 10
-662.6534057934
 20
196.12945942819991
 30
0.0
 40
2.5
  0
LINE
  5
51
  8
FORRO_EXT_LARG_D
  6
CONTINUOUS
 62
     7
 10
-898.65340579339966
 20
92.769459428199994
 30
0.0
 11
1063.3465942066
 21
92.769459428199994
 31
0.0
  0
LINE
  5
52
  8
FORRO_EXT_LARG_D
  6
CONTINUOUS
 62
     7
 10
1198.3465942066
 20
108.9494594282
 30
0.0
 11
1198.3465942066
 21
171.9494594281999
 31
0.0
  0
CIRCLE
  5
53
  8
FORRO_EXT_LARG_D
  6
CONTINUOUS
 62
     7
 10
225.3465942066
 20
196.12945942819991
 30
0.0
 40
2.5
  0
CIRCLE
  5
54
  8
FORRO_EXT_LARG_D
  6
CONTINUOUS
 62
     7
 10
-366.65340579339983
 20
196.12945942819991
 30
0.0
 40
2.5
  0
CIRCLE
  5
55
  8
FORRO_EXT_LARG_D
  6
CONTINUOUS
 62
     7
 10
-70.653405793399983
 20
196.12945942819991
 30
0.0
 40
2.5
  0
CIRCLE
  5
56
  8
FORRO_EXT_LARG_D
  6
CONTINUOUS
 62
     7
 10
521.3465942066
 20
196.12945942819991
 30
0.0
 40
2.5
  0
CIRCLE
  5
57
  8
FORRO_EXT_LARG_D
  6
CONTINUOUS
 62
     7
 10
-958.65340579340011
 20
196.12945942819991
 30
0.0
 40
2.5
  0
CIRCLE
  5
58
  8
FORRO_EXT_LARG_D
  6
CONTINUOUS
 62
     7
 10
817.3465942066
 20
196.12945942819991
 30
0.0
 40
2.5
  0
CIRCLE
  5
59
  8
FORRO_EXT_LARG_D
  6
CONTINUOUS
 62
     7
 10
1113.3465942066
 20
196.12945942819991
 30
0.0
 40
2.5
  0
LINE
  5
5A
  8
FORRO_EXT_LARG_D
  6
CONTINUOUS
 62
     7
 10
-898.65340579339966
 20
108.9494594282
 30
0.0
 11
-898.65340579339966
 21
92.769459428199994
 31
0.0
  0
LINE
  5
5B
  8
FORRO_EXT_LARG_D
  6
CONTINUOUS
 62
     7
 10
-1073.6534057933991
 20
108.9494594282
 30
0.0
 11
-898.65340579339966
 21
108.9494594282
 31
0.0
  0
LINE
  5
5C
  8
FORRO_EXT_LARG_D
  6
CONTINUOUS
 62
     7
 10
-1017.153405793399
 20
171.9494594281999
 30
0.0
 11
-1073.6534057933991
 21
171.9494594281999
 31
0.0
  0
LINE
  5
5D
  8
FORRO_EXT_LARG_D
  6
CONTINUOUS
 62
     7
 10
-1017.153405793399
 20
203.62945942819991
 30
0.0
 11
-1017.153405793399
 21
171.9494594281999
 31
0.0
  0
LINE
  5
5E
  8
FORRO_EXT_LARG_D
  6
CONTINUOUS
 62
     7
 10
1161.8465942066
 20
203.62945942819991
 30
0.0
 11
1161.8465942066
 21
171.9494594281999
 31
0.0
  0
LINE
  5
5F
  8
FORRO_EXT_LARG_D
  6
CONTINUOUS
 62
     7
 10
1161.8465942066
 20
171.9494594281999
 30
0.0
 11
1198.3465942066
 21
171.9494594281999
 31
0.0
  0
LINE
  5
60
  8
FORRO_EXT_LARG_D
  6
CONTINUOUS
 62
     7
 10
1063.3465942066
 20
108.9494594282
 30
0.0
 11
1063.3465942066
 21
92.769459428199994
 31
0.0
  0
LINE
  5
61
  8
FORRO_EXT_LARG_D
  6
CONTINUOUS
 62
     7
 10
1198.3465942066
 20
108.9494594282
 30
0.0
 11
1063.3465942066
 21
108.9494594282
 31
0.0
  0
ENDBLK
  5
62
  8
FORRO_EXT_LARG_D
  6
CONTINUOUS
 62
     7
  0
ENDSEC
  0
SECTION
  2
ENTITIES
  0
INSERT
  5
48
  8
DEFAULT
 62
     0
  2
SE0
 10
0.0
 20
0.0
 30
0.0
  0
LINE
  5
C6
  8
FEXT_LARG_IZQ_14
  6
CONTINUOUS
 62
     7
 10
92.346592186615098
 20
1635.311882140905
 30
0.0
 11
92.346592186614544
 21
-543.68811785909361
 31
0.0
  0
LINE
  5
C7
  8
FEXT_LARG_IZQ_14
  6
CONTINUOUS
 62
     7
 10
203.2098654052148
 20
1536.8118821409059
 30
0.0
 11
203.2098654052144
 21
-425.18811785909418
 31
0.0
  0
LINE
  5
C8
  8
FEXT_LARG_IZQ_14
  6
CONTINUOUS
 62
     7
 10
124.0282287959139
 20
-598.18811785909406
 30
0.0
 11
187.02822879591471
 21
-598.18811785909406
 31
0.0
  0
LINE
  5
C9
  8
FEXT_LARG_IZQ_14
  6
CONTINUOUS
 62
     7
 10
124.0282287959149
 20
1668.811882140905
 30
0.0
 11
187.02822879591531
 21
1668.811882140905
 31
0.0
  0
LINE
  5
CA
  8
0
  6
CONTINUOUS
 10
187.02822879591531
 20
1668.811882140905
 30
0.0
 11
187.02822879591531
 21
1536.8118821409059
 31
0.0
  0
LINE
  5
CB
  8
0
  6
CONTINUOUS
 10
124.0282287959149
 20
1668.811882140905
 30
0.0
 11
124.0282287959149
 21
1635.311882140905
 31
0.0
  0
LINE
  5
CC
  8
0
  6
CONTINUOUS
 10
203.2098654052148
 20
1536.8118821409059
 30
0.0
 11
187.02822879591531
 21
1536.8118821409059
 31
0.0
  0
LINE
  5
CD
  8
0
  6
CONTINUOUS
 10
203.2098654052144
 20
-425.18811785909418
 30
0.0
 11
187.0282287959148
 21
-425.18811785909418
 31
0.0
  0
LINE
  5
CE
  8
0
  6
CONTINUOUS
 10
92.346592186615098
 20
1635.311882140905
 30
0.0
 11
124.0282287959149
 21
1635.311882140905
 31
0.0
  0
LINE
  5
CF
  8
0
  6
CONTINUOUS
 10
92.346592186614544
 20
-543.68811785909361
 30
0.0
 11
124.028228795914
 21
-543.68811785909361
 31
0.0
  0
LINE
  5
D0
  8
0
  6
CONTINUOUS
 10
124.028228795914
 20
-543.68811785909361
 30
0.0
 11
124.0282287959139
 21
-598.18811785909406
 31
0.0
  0
LINE
  5
D1
  8
0
  6
CONTINUOUS
 10
187.0282287959148
 20
-425.18811785909418
 30
0.0
 11
187.02822879591471
 21
-598.18811785909406
 31
0.0
  0
CIRCLE
  5
D2
  8
FEXT_LARG_IZQ_14
  6
CONTINUOUS
 62
     7
 10
99.846592186614771
 20
-189.18811785909301
 30
0.0
 40
2.5
  0
CIRCLE
  5
D3
  8
FEXT_LARG_IZQ_14
  6
CONTINUOUS
 62
     7
 10
99.846592186614771
 20
-485.18811785909247
 30
0.0
 40
2.5
  0
CIRCLE
  5
D4
  8
FEXT_LARG_IZQ_14
  6
CONTINUOUS
 62
     7
 10
99.846592186615567
 20
1586.8118821409059
 30
0.0
 40
2.5
  0
CIRCLE
  5
D5
  8
FEXT_LARG_IZQ_14
  6
CONTINUOUS
 62
     7
 10
99.846592186614771
 20
106.8118821409069
 30
0.0
 40
2.5
  0
CIRCLE
  5
D6
  8
FEXT_LARG_IZQ_14
  6
CONTINUOUS
 62
     7
 10
99.846592186614998
 20
402.81188214090707
 30
0.0
 40
2.5
  0
CIRCLE
  5
D7
  8
FEXT_LARG_IZQ_14
  6
CONTINUOUS
 62
     7
 10
99.846592186614998
 20
698.81188214090685
 30
0.0
 40
2.5
  0
CIRCLE
  5
D8
  8
FEXT_LARG_IZQ_14
  6
CONTINUOUS
 62
     7
 10
99.846592186615226
 20
994.81188214090662
 30
0.0
 40
2.5
  0
CIRCLE
  5
D9
  8
FEXT_LARG_IZQ_14
  6
CONTINUOUS
 62
     7
 10
99.846592186615567
 20
1290.8118821409059
 30
0.0
 40
2.5
  0
ENDSEC
  0
EOF
